<svg width="33" height="30" viewBox="0 0 33 30" fill="none" xmlns="http://www.w3.org/2000/svg">
<path d="M23 20.7617C23.5393 20.7617 23.9766 20.3245 23.9766 19.7852C23.9766 19.2458 23.5393 18.8086 23 18.8086C22.4607 18.8086 22.0234 19.2458 22.0234 19.7852C22.0234 20.3245 22.4607 20.7617 23 20.7617Z" fill="#A4A4A4"/>
<path d="M23 5C17.4733 5 13 9.47254 13 15C13 20.5267 17.4725 25 23 25C28.5267 25 33 20.5275 33 15C33 9.47328 28.5275 5 23 5ZM23 23.4375C18.3368 23.4375 14.5625 19.6638 14.5625 15C14.5625 10.3368 18.3362 6.5625 23 6.5625C27.6632 6.5625 31.4375 10.3362 31.4375 15C31.4375 19.6632 27.6638 23.4375 23 23.4375Z" fill="#A4A4A4"/>
<path d="M23 10.0195C21.2769 10.0195 19.875 11.4214 19.875 13.1445C19.875 13.576 20.2248 13.9258 20.6562 13.9258C21.0877 13.9258 21.4375 13.576 21.4375 13.1445C21.4375 12.283 22.1384 11.582 23 11.582C23.8616 11.582 24.5625 12.283 24.5625 13.1445C24.5625 14.0061 23.8616 14.707 23 14.707C22.5685 14.707 22.2188 15.0568 22.2188 15.4883V17.4414C22.2188 17.8729 22.5685 18.2227 23 18.2227C23.4315 18.2227 23.7812 17.8729 23.7812 17.4414V16.1707C25.1276 15.8229 26.125 14.598 26.125 13.1445C26.125 11.4214 24.7231 10.0195 23 10.0195Z" fill="#A4A4A4"/>
</svg>
