<svg width="47" height="30" viewBox="0 0 47 30" fill="none" xmlns="http://www.w3.org/2000/svg">
<path d="M10.9098 28.0451C8.65497 28.0451 6.81885 26.1497 6.81885 23.8194C6.81885 23.3529 7.18539 22.9742 7.63703 22.9742C8.08867 22.9742 8.45522 23.3529 8.45522 23.8194C8.45522 25.2179 9.55705 26.3548 10.9098 26.3548C12.2625 26.3548 13.3643 25.2179 13.3643 23.8194C13.3643 23.3529 13.7309 22.9742 14.1825 22.9742C14.6341 22.9742 15.0007 23.3529 15.0007 23.8194C15.0007 26.1497 13.1648 28.0451 10.9098 28.0451Z" fill="#5D3189"/>
<path d="M18.5457 12.2686C15.538 12.2686 13.0911 9.74121 13.0911 6.63441C13.0911 3.52761 15.538 1 18.5457 1C21.5534 1 24.0001 3.52761 24.0001 6.63441C24.0001 9.74121 21.5534 12.2686 18.5457 12.2686ZM18.5457 2.6903C16.4401 2.6903 14.7274 4.45943 14.7274 6.63441C14.7274 8.80919 16.4401 10.5783 18.5457 10.5783C20.6511 10.5783 22.3637 8.80919 22.3637 6.63441C22.3637 4.45943 20.6511 2.6903 18.5457 2.6903Z" fill="#5D3189"/>
<ellipse cx="18.5625" cy="6.72078" rx="4.53148" ry="4.68084" fill="#FF5A00"/>
<path d="M19.9091 24.6635H1.90903C0.856338 24.6635 0 23.779 0 22.6916C0 22.1145 0.243298 21.5681 0.667572 21.1928C0.694938 21.168 0.724302 21.1455 0.754864 21.1251C2.35628 19.6816 3.27274 17.6048 3.27274 15.4119V12.2679C3.27274 7.91836 6.69929 4.37991 10.9091 4.37991C11.0837 4.37991 11.2724 4.38321 11.447 4.41375C11.893 4.4903 12.1943 4.9265 12.12 5.38621C12.0459 5.84593 11.616 6.15708 11.1785 6.08033C11.0912 6.06568 10.9954 6.07021 10.9091 6.07021C7.60157 6.07021 4.90911 8.85017 4.90911 12.2679V15.4119C4.90911 18.1345 3.75374 20.7106 1.74224 22.4784C1.72586 22.4921 1.71168 22.5044 1.6941 22.5168C1.66474 22.5552 1.63637 22.6138 1.63637 22.6916C1.63637 22.8447 1.76082 22.9732 1.90903 22.9732H19.9091C20.0575 22.9732 20.182 22.8447 20.182 22.6916C20.182 22.6126 20.1536 22.5552 20.123 22.5168C20.1067 22.5044 20.0925 22.4921 20.0761 22.4784C18.0634 20.7093 16.9092 18.1345 16.9092 15.4119V14.1837C16.9092 13.7172 17.2758 13.3386 17.7274 13.3386C18.1791 13.3386 18.5456 13.7172 18.5456 14.1837V15.4119C18.5456 17.606 19.4631 19.6838 21.0667 21.1286C21.096 21.1488 21.1244 21.1703 21.1506 21.194C21.575 21.5681 21.8183 22.1145 21.8183 22.6916C21.8183 23.779 20.962 24.6635 19.9091 24.6635Z" fill="#5D3189"/>
</svg>
