<svg width="30" height="30" viewBox="0 0 30 30" fill="none" xmlns="http://www.w3.org/2000/svg">
<path d="M24.697 14.2685L20.7957 10.3672C20.6997 10.2712 20.5856 10.195 20.4601 10.143C20.3346 10.091 20.2001 10.0642 20.0642 10.0642C19.9284 10.0642 19.7938 10.091 19.6683 10.143C19.5428 10.195 19.4288 10.2712 19.3327 10.3672C19.1387 10.5612 19.0297 10.8243 19.0297 11.0987C19.0297 11.3731 19.1387 11.6362 19.3327 11.8302L21.4681 13.9655H10.1724C9.89806 13.9655 9.63494 14.0745 9.44093 14.2685C9.24693 14.4625 9.13794 14.7256 9.13794 15C9.13794 15.2743 9.24693 15.5375 9.44093 15.7315C9.63494 15.9255 9.89806 16.0345 10.1724 16.0345H21.4681L19.3327 18.1698C19.1387 18.3638 19.0297 18.6269 19.0297 18.9013C19.0297 19.1756 19.1387 19.4388 19.3327 19.6328C19.5267 19.8268 19.7899 19.9357 20.0642 19.9357C20.3386 19.9357 20.6017 19.8267 20.7957 19.6327L24.697 15.7314C24.891 15.5374 25 15.2743 25 15C25 14.7256 24.891 14.4625 24.697 14.2685Z" fill="#A4A4A4"/>
<path d="M17.069 20.8621C16.7946 20.8621 16.5315 20.971 16.3375 21.1651C16.1435 21.3591 16.0345 21.6222 16.0345 21.8965V22.931H7.06896V7.06896H16.0345V8.10345C16.0345 8.37781 16.1435 8.64093 16.3375 8.83494C16.5315 9.02894 16.7946 9.13793 17.069 9.13793C17.3433 9.13793 17.6064 9.02894 17.8004 8.83494C17.9944 8.64093 18.1034 8.37781 18.1034 8.10345V6.72414C18.1034 6.49772 18.0588 6.27352 17.9722 6.06434C17.8856 5.85516 17.7586 5.66509 17.5985 5.50499C17.4384 5.34489 17.2483 5.21789 17.0391 5.13124C16.8299 5.0446 16.6057 5 16.3793 5H6.72414C6.26687 5 5.82833 5.18165 5.50499 5.50499C5.18165 5.82833 5 6.26687 5 6.72414V23.2758C5 23.7331 5.18165 24.1717 5.50499 24.495C5.82833 24.8183 6.26687 25 6.72414 25H16.3793C16.6057 25 16.8299 24.9554 17.0391 24.8687C17.2483 24.7821 17.4384 24.6551 17.5985 24.495C17.7586 24.3349 17.8856 24.1448 17.9722 23.9356C18.0588 23.7265 18.1034 23.5023 18.1034 23.2758V21.8965C18.1034 21.6222 17.9944 21.3591 17.8004 21.1651C17.6064 20.971 17.3433 20.8621 17.069 20.8621Z" fill="#A4A4A4"/>
</svg>
