<svg width="20" height="26" viewBox="0 0 20 26" fill="none" xmlns="http://www.w3.org/2000/svg">
<path d="M4.35955 10.9489L6.6971 8.13667C6.8295 7.97737 6.8077 7.74097 6.6484 7.60857C6.4892 7.47622 6.2527 7.49802 6.1203 7.65727L4.1166 10.0678L3.67865 9.35642C3.5701 9.18007 3.33915 9.12502 3.1627 9.23367C2.98635 9.34227 2.9314 9.57327 3.03995 9.74957L3.75175 10.9057C3.88635 11.1242 4.19565 11.1461 4.35955 10.9489Z" fill="#A4A4A4"/>
<path d="M3.04011 14.6996L3.75191 15.8557C3.88641 16.0742 4.19571 16.0961 4.35961 15.8988L6.69716 13.0866C6.82956 12.9273 6.80776 12.6909 6.64846 12.5585C6.48926 12.4262 6.25276 12.4479 6.12036 12.6072L4.11666 15.0178L3.67871 14.3064C3.57016 14.13 3.33921 14.075 3.16276 14.1836C2.98646 14.2923 2.93151 14.5233 3.04011 14.6996Z" fill="#A4A4A4"/>
<path d="M3.04011 19.6829L3.75191 20.8391C3.88641 21.0576 4.19571 21.0794 4.35961 20.8822L6.69716 18.07C6.82956 17.9107 6.80776 17.6743 6.64846 17.5419C6.48926 17.4095 6.25276 17.4313 6.12036 17.5906L4.11666 20.0011L3.67871 19.2897C3.57016 19.1134 3.33921 19.0584 3.16276 19.167C2.98646 19.2756 2.93151 19.5066 3.04011 19.6829Z" fill="#A4A4A4"/>
<path d="M19.625 21.1703C19.4179 21.1703 19.25 21.3381 19.25 21.5453V24.275C19.25 24.5921 18.9921 24.85 18.675 24.85H1.325C1.00795 24.85 0.75 24.5921 0.75 24.275V7.84045C0.75 7.6333 0.5821 7.46545 0.375 7.46545C0.1679 7.46545 0 7.6333 0 7.84045V24.275C0 25.0056 0.5944 25.6 1.325 25.6H18.675C19.4056 25.6 20 25.0056 20 24.275V21.5453C20 21.3382 19.8321 21.1703 19.625 21.1703Z" fill="#A4A4A4"/>
<path d="M18.675 2.88955H16.8406V1.34C16.8406 0.60115 16.2395 0 15.5006 0C14.7617 0 14.1606 0.6011 14.1606 1.34V2.88955H11.34V1.34C11.34 0.6011 10.7389 0 10 0C9.26115 0 8.66 0.6011 8.66 1.34V2.88955H5.83935V1.34C5.83935 0.60115 5.23825 0 4.49935 0C3.7605 0 3.15935 0.6011 3.15935 1.34V2.88955H1.325C0.5944 2.88955 0 3.48395 0 4.21455V6.09045C0 6.2976 0.1679 6.46545 0.375 6.46545C0.5821 6.46545 0.75 6.2976 0.75 6.09045V4.21455C0.75 3.8975 1.00795 3.63955 1.325 3.63955H3.15935V4.235C3.15935 4.97385 3.76045 5.575 4.49935 5.575C5.23825 5.575 5.83935 4.9739 5.83935 4.235V3.63955H8.66V4.235C8.66 4.97385 9.2611 5.575 10 5.575C10.7389 5.575 11.34 4.9739 11.34 4.235V3.63955H14.1607V4.235C14.1607 4.97385 14.7618 5.575 15.5007 5.575C16.2395 5.575 16.8407 4.9739 16.8407 4.235V3.63955H18.675C18.9921 3.63955 19.25 3.8975 19.25 4.21455V19.7952C19.25 20.0024 19.4179 20.1702 19.625 20.1702C19.8321 20.1702 20 20.0024 20 19.7952V4.21455C20 3.48395 19.4056 2.88955 18.675 2.88955ZM5.0894 4.235C5.0894 4.56035 4.82475 4.825 4.4994 4.825C4.1741 4.825 3.9094 4.56035 3.9094 4.235C3.9094 3.43565 3.9094 1.5902 3.9094 1.34C3.9094 1.01465 4.17405 0.75 4.4994 0.75C4.82475 0.75 5.0894 1.01465 5.0894 1.34V4.235ZM10.59 4.235C10.59 4.56035 10.3253 4.825 10 4.825C9.67465 4.825 9.41 4.56035 9.41 4.235C9.41 3.43565 9.41 1.5902 9.41 1.34C9.41 1.01465 9.67465 0.75 10 0.75C10.3253 0.75 10.59 1.01465 10.59 1.34V4.235ZM16.0907 4.235C16.0907 4.56035 15.826 4.825 15.5007 4.825C15.1753 4.825 14.9107 4.56035 14.9107 4.235C14.9107 3.43565 14.9107 1.5902 14.9107 1.34C14.9107 1.01465 15.1753 0.75 15.5007 0.75C15.826 0.75 16.0907 1.01465 16.0907 1.34V4.235Z" fill="#A4A4A4"/>
<path d="M8.28682 11.2591H16.1868C16.8347 11.2591 17.3618 10.732 17.3618 10.0841C17.3618 9.43622 16.8347 8.90912 16.1868 8.90912H8.28682C7.63892 8.90912 7.11182 9.43622 7.11182 10.0841C7.11182 10.732 7.63892 11.2591 8.28682 11.2591ZM8.28682 9.65912H16.1868C16.4212 9.65912 16.6118 9.84977 16.6118 10.0841C16.6118 10.3185 16.4212 10.5091 16.1868 10.5091H8.28682C8.05247 10.5091 7.86182 10.3185 7.86182 10.0841C7.86182 9.84977 8.05247 9.65912 8.28682 9.65912Z" fill="#A4A4A4"/>
<path d="M8.28682 16.2198H16.1868C16.8347 16.2198 17.3618 15.6927 17.3618 15.0448C17.3618 14.3969 16.8347 13.8698 16.1868 13.8698H8.28682C7.63892 13.8698 7.11182 14.3969 7.11182 15.0448C7.11182 15.6927 7.63892 16.2198 8.28682 16.2198ZM8.28682 14.6198H16.1868C16.4212 14.6198 16.6118 14.8105 16.6118 15.0448C16.6118 15.2792 16.4212 15.4698 16.1868 15.4698H8.28682C8.05247 15.4698 7.86182 15.2792 7.86182 15.0448C7.86182 14.8105 8.05247 14.6198 8.28682 14.6198Z" fill="#A4A4A4"/>
<path d="M8.28682 21.1804H16.1868C16.8347 21.1804 17.3618 20.6533 17.3618 20.0054C17.3618 19.3575 16.8347 18.8304 16.1868 18.8304H8.28682C7.63892 18.8304 7.11182 19.3575 7.11182 20.0054C7.11182 20.6533 7.63892 21.1804 8.28682 21.1804ZM8.28682 19.5804H16.1868C16.4212 19.5804 16.6118 19.771 16.6118 20.0054C16.6118 20.2397 16.4212 20.4304 16.1868 20.4304H8.28682C8.05247 20.4304 7.86182 20.2397 7.86182 20.0054C7.86182 19.771 8.05247 19.5804 8.28682 19.5804Z" fill="#A4A4A4"/>
</svg>
