<svg width="30" height="30" viewBox="0 0 30 30" fill="none" xmlns="http://www.w3.org/2000/svg">
<path d="M15.6276 25H14.3724C13.3572 25 12.5312 24.1741 12.5312 23.1589V22.7342C12.0996 22.5963 11.6803 22.4223 11.2774 22.2138L10.9765 22.5147C10.2476 23.2445 9.08008 23.2231 8.37238 22.5145L7.48523 21.6273C6.77629 20.9192 6.7559 19.752 7.48547 19.0232L7.78617 18.7225C7.5777 18.3197 7.40367 17.9004 7.26574 17.4688H6.84113C5.82598 17.4688 5 16.6428 5 15.6276V14.3724C5 13.3572 5.82598 12.5312 6.84117 12.5312H7.26578C7.40371 12.0996 7.57773 11.6803 7.78621 11.2775L7.48527 10.9766C6.75613 10.2482 6.77625 9.08094 7.48551 8.37246L8.37273 7.48527C9.08207 6.77496 10.2493 6.75723 10.9768 7.48551L11.2775 7.78617C11.6803 7.57773 12.0996 7.40367 12.5312 7.26574V6.84113C12.5312 5.82594 13.3572 5 14.3724 5H15.6276C16.6428 5 17.4688 5.82594 17.4688 6.84113V7.26578C17.9004 7.40367 18.3197 7.57773 18.7225 7.78621L19.0235 7.48527C19.7523 6.75551 20.9199 6.77691 21.6276 7.48555L22.5147 8.37266C23.2237 9.08082 23.2441 10.248 22.5145 10.9768L22.2138 11.2775C22.4223 11.6803 22.5963 12.0996 22.7342 12.5312H23.1588C24.174 12.5312 25 13.3572 25 14.3724V15.6276C25 16.6428 24.174 17.4688 23.1588 17.4688H22.7342C22.5963 17.9004 22.4223 18.3197 22.2138 18.7225L22.5147 19.0235C23.2439 19.7518 23.2237 20.9191 22.5145 21.6276L21.6273 22.5148C20.9179 23.2251 19.7507 23.2428 19.0232 22.5145L18.7225 22.2139C18.3197 22.4223 17.9004 22.5964 17.4688 22.7343V23.1589C17.4688 24.1741 16.6428 25 15.6276 25ZM11.4733 20.9832C12.033 21.3142 12.6353 21.5642 13.2636 21.7264C13.5223 21.7931 13.7031 22.0265 13.7031 22.2937V23.1589C13.7031 23.5279 14.0034 23.8281 14.3724 23.8281H15.6276C15.9966 23.8281 16.2969 23.5279 16.2969 23.1589V22.2937C16.2969 22.0265 16.4777 21.7931 16.7364 21.7264C17.3647 21.5642 17.9671 21.3142 18.5267 20.9832C18.757 20.847 19.0502 20.8841 19.2393 21.0732L19.8521 21.6861C20.1164 21.9506 20.5407 21.9445 20.7984 21.6864L21.6862 20.7986C21.9433 20.5418 21.9519 20.1175 21.6864 19.8523L21.0733 19.2393C20.8842 19.0501 20.8471 18.7569 20.9833 18.5267C21.3143 17.9671 21.5643 17.3647 21.7264 16.7364C21.7932 16.4777 22.0266 16.2969 22.2938 16.2969H23.1589C23.5279 16.2969 23.8282 15.9967 23.8282 15.6277V14.3724C23.8282 14.0034 23.5279 13.7032 23.1589 13.7032H22.2938C22.0265 13.7032 21.7932 13.5224 21.7264 13.2637C21.5643 12.6354 21.3142 12.033 20.9833 11.4734C20.8471 11.2432 20.8842 10.95 21.0733 10.7608L21.6862 10.148C21.9511 9.88336 21.9442 9.45914 21.6864 9.20168L20.7987 8.31398C20.5414 8.05633 20.117 8.04879 19.8524 8.31375L19.2394 8.92684C19.0502 9.11602 18.757 9.15305 18.5268 9.01688C17.9671 8.6859 17.3648 8.43586 16.7365 8.27371C16.4777 8.20695 16.297 7.97359 16.297 7.70637V6.84113C16.297 6.47211 15.9967 6.17188 15.6277 6.17188H14.3725C14.0034 6.17188 13.7032 6.47211 13.7032 6.84113V7.70629C13.7032 7.97352 13.5224 8.20688 13.2636 8.27363C12.6354 8.43578 12.033 8.68582 11.4734 9.0168C11.243 9.15293 10.9499 9.1159 10.7607 8.92676L10.1479 8.31391C9.88371 8.04938 9.45938 8.05551 9.20168 8.31363L8.31391 9.20137C8.0568 9.45816 8.0482 9.8825 8.31367 10.1477L8.92676 10.7607C9.1159 10.9499 9.15293 11.2431 9.0168 11.4733C8.68582 12.0329 8.43582 12.6353 8.27367 13.2636C8.20688 13.5223 7.97352 13.7031 7.70633 13.7031H6.84117C6.47215 13.7031 6.17188 14.0034 6.17188 14.3724V15.6276C6.17188 15.9966 6.47215 16.2969 6.84117 16.2969H7.70629C7.97352 16.2969 8.20684 16.4777 8.27363 16.7364C8.43578 17.3647 8.68582 17.967 9.01676 18.5266C9.15289 18.7569 9.11586 19.0501 8.92672 19.2392L8.31387 19.8521C8.04895 20.1167 8.05586 20.5409 8.31363 20.7984L9.20133 21.6861C9.45863 21.9437 9.88301 21.9513 10.1476 21.6863L10.7607 21.0732C10.9 20.9339 11.19 20.8156 11.4733 20.9832Z" fill="#A4A4A4"/>
<path d="M14.9999 19.3516C12.6004 19.3516 10.6483 17.3995 10.6483 15C10.6483 12.6006 12.6004 10.6485 14.9999 10.6485C17.3994 10.6485 19.3514 12.6006 19.3514 15C19.3514 17.3995 17.3994 19.3516 14.9999 19.3516ZM14.9999 11.8203C13.2466 11.8203 11.8202 13.2467 11.8202 15C11.8202 16.7533 13.2466 18.1797 14.9999 18.1797C16.7532 18.1797 18.1796 16.7533 18.1796 15C18.1796 13.2467 16.7532 11.8203 14.9999 11.8203Z" fill="#A4A4A4"/>
</svg>
